<?xml version="1.0" standalone="no"?>
<!DOCTYPE svg PUBLIC "-//W3C//DTD SVG 20010904//EN"
 "http://www.w3.org/TR/2001/REC-SVG-20010904/DTD/svg10.dtd">
<svg version="1.0" xmlns="http://www.w3.org/2000/svg"
 width="20.000000pt" height="19.000000pt" viewBox="0 0 20.000000 19.000000"
 preserveAspectRatio="xMidYMid meet">

<g transform="translate(0.000000,19.000000) scale(0.100000,-0.100000)"
fill="#000000" stroke="none">
<path d="M33 175 c-32 -14 -33 -15 -33 -79 l0 -64 50 -17 c47 -15 53 -15 100
0 l50 17 0 64 c0 65 0 65 -35 80 -43 18 -90 17 -132 -1z m123 -5 c19 -8 24
-14 17 -21 -6 -6 -9 -26 -6 -45 3 -26 1 -34 -10 -34 -9 0 -22 -3 -31 -6 -13
-5 -16 2 -16 35 0 37 3 41 33 49 l32 9 -37 8 c-21 4 -55 4 -75 0 l-38 -8 33
-9 c29 -8 32 -12 32 -49 0 -33 -3 -40 -16 -35 -9 3 -22 6 -29 6 -7 0 -12 8
-11 18 2 9 -1 30 -5 45 -7 24 -4 29 14 37 30 12 80 12 113 0z"/>
</g>
</svg>
